<?xml version="1.0" standalone="no"?>
<!DOCTYPE svg PUBLIC "-//W3C//DTD SVG 20010904//EN"
 "http://www.w3.org/TR/2001/REC-SVG-20010904/DTD/svg10.dtd">
<svg version="1.0" xmlns="http://www.w3.org/2000/svg"
 width="421.000000pt" height="421.000000pt" viewBox="0 0 421.000000 421.000000"
 preserveAspectRatio="xMidYMid meet">
<metadata>
Created by potrace 1.14, written by Peter Selinger 2001-2017
</metadata>
<g transform="translate(0.000000,421.000000) scale(0.100000,-0.100000)"
fill="#000000" stroke="none">
<path d="M1981 4194 c-140 -29 -265 -110 -357 -229 -30 -40 -80 -142 -90 -185
-4 -19 -9 -42 -12 -50 -2 -8 -6 -46 -8 -85 -16 -265 153 -509 410 -591 251
-81 529 20 674 244 217 336 32 800 -354 891 -76 18 -191 20 -263 5z"/>
<path d="M675 3435 c-180 -39 -324 -149 -405 -310 -120 -237 -77 -501 109
-685 117 -116 251 -171 414 -171 89 0 150 13 267 57 236 89 419 -24 446 -276
10 -85 49 -199 93 -266 38 -56 79 -99 197 -202 117 -100 150 -205 107 -336
-17 -52 -59 -100 -186 -209 -299 -258 -273 -716 53 -936 100 -68 166 -90 297
-98 164 -11 325 49 443 166 113 112 167 234 176 396 10 203 -79 384 -253 514
-103 77 -154 168 -155 273 -1 99 41 161 207 308 175 155 244 406 171 625 -83
247 -309 410 -565 407 -79 -1 -133 -12 -238 -48 -111 -38 -212 -50 -265 -32
-111 38 -191 144 -204 271 -19 179 -82 310 -200 415 -64 57 -173 115 -249 132
-75 17 -193 19 -260 5z"/>
<path d="M3318 3439 c-123 -20 -225 -74 -323 -173 -133 -134 -187 -304 -162
-502 23 -176 151 -351 318 -433 84 -41 218 -73 277 -66 15 2 51 6 80 10 120
14 258 89 347 188 53 60 115 170 130 232 4 17 9 39 12 50 19 82 5 232 -33 332
-56 151 -210 293 -372 343 -71 22 -202 31 -274 19z"/>
<path d="M692 1884 c-226 -48 -421 -250 -458 -475 -31 -190 32 -385 167 -519
129 -129 322 -196 485 -170 84 14 98 17 152 39 172 69 313 234 355 419 14 61
15 199 3 255 -47 207 -220 388 -421 442 -81 22 -206 26 -283 9z"/>
</g>
</svg>
